<svg width="283" height="97" viewBox="0 0 283 97" fill="none" xmlns="http://www.w3.org/2000/svg">
<path d="M8.64 96C8 96 7.68 95.68 7.68 95.04V29.76C7.68 29.12 8 28.8 8.64 28.8H13.536C14.176 28.8 14.496 29.12 14.496 29.76V69.024C14.496 69.152 14.528 69.248 14.592 69.312C14.72 69.376 14.848 69.344 14.976 69.216L35.328 47.904C35.648 47.584 36.032 47.424 36.48 47.424H42.24C42.624 47.424 42.88 47.552 43.008 47.808C43.136 48.064 43.072 48.32 42.816 48.576L30.528 62.208C30.4 62.336 30.368 62.496 30.432 62.688L45.12 94.848L45.216 95.232C45.216 95.744 44.928 96 44.352 96H39.168C38.656 96 38.304 95.744 38.112 95.232L25.728 67.2C25.6 66.944 25.44 66.912 25.248 67.104L14.688 78.24C14.56 78.368 14.496 78.528 14.496 78.72V95.04C14.496 95.68 14.176 96 13.536 96H8.64ZM79.2405 96.768C74.6325 96.768 70.6645 95.584 67.3365 93.216C64.0085 90.848 61.7045 87.584 60.4245 83.424C59.5285 80.48 59.0805 76.544 59.0805 71.616C59.0805 66.688 59.5285 62.784 60.4245 59.904C61.6405 55.808 63.9125 52.576 67.2405 50.208C70.5685 47.84 74.6005 46.656 79.3365 46.656C83.8805 46.656 87.7845 47.84 91.0485 50.208C94.3765 52.576 96.6485 55.776 97.8645 59.808C98.7605 62.56 99.2085 66.496 99.2085 71.616C99.2085 76.8 98.7605 80.736 97.8645 83.424C96.6485 87.584 94.3765 90.848 91.0485 93.216C87.7845 95.584 83.8485 96.768 79.2405 96.768ZM79.2405 90.816C82.3125 90.816 84.9365 89.984 87.1125 88.32C89.2885 86.592 90.7605 84.288 91.5285 81.408C92.1045 79.104 92.3925 75.872 92.3925 71.712C92.3925 67.488 92.1365 64.256 91.6245 62.016C90.8565 59.136 89.3525 56.864 87.1125 55.2C84.9365 53.472 82.2805 52.608 79.1445 52.608C76.0085 52.608 73.3525 53.472 71.1765 55.2C69.0005 56.864 67.5285 59.136 66.7605 62.016C66.2485 64.256 65.9925 67.488 65.9925 71.712C65.9925 75.936 66.2485 79.168 66.7605 81.408C67.4645 84.288 68.9045 86.592 71.0805 88.32C73.3205 89.984 76.0405 90.816 79.2405 90.816ZM138.945 34.752C135.425 34.752 133.025 35.552 131.745 37.152C130.465 38.688 129.825 41.344 129.825 45.12V47.04C129.825 47.296 129.953 47.424 130.209 47.424H140.961C141.601 47.424 141.921 47.744 141.921 48.384V52.704C141.921 53.344 141.601 53.664 140.961 53.664H130.209C129.953 53.664 129.825 53.792 129.825 54.048V95.04C129.825 95.68 129.505 96 128.865 96H124.065C123.425 96 123.105 95.68 123.105 95.04V54.048C123.105 53.792 122.977 53.664 122.721 53.664H116.289C115.649 53.664 115.329 53.344 115.329 52.704V48.384C115.329 47.744 115.649 47.424 116.289 47.424H122.721C122.977 47.424 123.105 47.296 123.105 47.04V44.736C123.105 40.768 123.553 37.664 124.449 35.424C125.345 33.12 126.881 31.456 129.057 30.432C131.297 29.344 134.401 28.8 138.369 28.8H141.153C141.793 28.8 142.113 29.12 142.113 29.76V33.792C142.113 34.432 141.793 34.752 141.153 34.752H138.945ZM181.804 34.752C178.284 34.752 175.884 35.552 174.604 37.152C173.324 38.688 172.684 41.344 172.684 45.12V47.04C172.684 47.296 172.812 47.424 173.068 47.424H183.82C184.46 47.424 184.78 47.744 184.78 48.384V52.704C184.78 53.344 184.46 53.664 183.82 53.664H173.068C172.812 53.664 172.684 53.792 172.684 54.048V95.04C172.684 95.68 172.364 96 171.724 96H166.924C166.284 96 165.964 95.68 165.964 95.04V54.048C165.964 53.792 165.836 53.664 165.58 53.664H159.148C158.508 53.664 158.188 53.344 158.188 52.704V48.384C158.188 47.744 158.508 47.424 159.148 47.424H165.58C165.836 47.424 165.964 47.296 165.964 47.04V44.736C165.964 40.768 166.412 37.664 167.308 35.424C168.204 33.12 169.74 31.456 171.916 30.432C174.156 29.344 177.26 28.8 181.228 28.8H184.012C184.652 28.8 184.972 29.12 184.972 29.76V33.792C184.972 34.432 184.652 34.752 184.012 34.752H181.804ZM210.071 38.592C208.535 38.592 207.255 38.08 206.231 37.056C205.207 36.032 204.695 34.752 204.695 33.216C204.695 31.616 205.207 30.336 206.231 29.376C207.255 28.352 208.535 27.84 210.071 27.84C211.607 27.84 212.887 28.352 213.911 29.376C214.935 30.336 215.447 31.616 215.447 33.216C215.447 34.752 214.935 36.032 213.911 37.056C212.887 38.08 211.607 38.592 210.071 38.592ZM207.383 95.904C206.743 95.904 206.423 95.584 206.423 94.944V48.288C206.423 47.648 206.743 47.328 207.383 47.328H212.279C212.919 47.328 213.239 47.648 213.239 48.288V94.944C213.239 95.584 212.919 95.904 212.279 95.904H207.383ZM273.899 63.552C274.155 65.344 274.283 67.584 274.283 70.272V73.344C274.283 73.984 273.963 74.304 273.323 74.304H242.315C242.059 74.304 241.931 74.432 241.931 74.688C242.059 78.208 242.251 80.48 242.507 81.504C243.211 84.384 244.715 86.656 247.019 88.32C249.323 89.984 252.267 90.816 255.851 90.816C258.539 90.816 260.907 90.208 262.955 88.992C265.003 87.776 266.603 86.048 267.755 83.808C268.139 83.232 268.587 83.104 269.099 83.424L272.843 85.632C273.355 85.952 273.483 86.4 273.227 86.976C271.627 90.048 269.227 92.48 266.027 94.272C262.827 96 259.147 96.864 254.987 96.864C250.443 96.8 246.635 95.712 243.563 93.6C240.491 91.488 238.283 88.544 236.939 84.768C235.787 81.696 235.211 77.28 235.211 71.52C235.211 68.832 235.243 66.656 235.307 64.992C235.435 63.264 235.691 61.728 236.075 60.384C237.163 56.224 239.339 52.896 242.603 50.4C245.931 47.904 249.931 46.656 254.603 46.656C260.427 46.656 264.907 48.128 268.043 51.072C271.179 54.016 273.131 58.176 273.899 63.552ZM254.603 52.608C251.467 52.608 248.843 53.44 246.731 55.104C244.683 56.704 243.339 58.88 242.699 61.632C242.315 62.976 242.059 65.152 241.931 68.16C241.931 68.416 242.059 68.544 242.315 68.544H267.179C267.435 68.544 267.563 68.416 267.563 68.16C267.435 65.28 267.243 63.232 266.987 62.016C266.283 59.136 264.843 56.864 262.667 55.2C260.555 53.472 257.867 52.608 254.603 52.608Z" fill="black"/>
<rect x="224.203" y="43.834" width="30.6244" height="26.2495" transform="rotate(179.314 224.203 43.834)" fill="white"/>
<path d="M221.905 36.3929C210.105 35.4963 212.868 27.9561 205.61 24.8229C198.352 21.6896 196.094 23.939 196.094 23.939C198.46 18.7772 205.789 18.2402 213.047 21.3734C220.305 24.5066 224.271 31.2311 221.905 36.3929Z" fill="#7A6427"/>
<path d="M196.167 24.0566C207.675 25.7955 205.531 32.6615 212.56 36.2521C219.59 39.8427 222.667 35.1333 221.623 37.0593C218.912 42.0589 211.016 43.2011 203.987 39.6105C196.957 36.0199 193.456 29.0562 196.167 24.0566Z" fill="#7A6427"/>
</svg>
